<svg xmlns="http://www.w3.org/2000/svg" xmlns:xlink="http://www.w3.org/1999/xlink" width="500" zoomAndPan="magnify" viewBox="0 0 375 374.999991" height="500" preserveAspectRatio="xMidYMid meet" version="1.0"><defs><clipPath id="5b854fa161"><path d="M 119 110 L 274 110 L 274 265 L 119 265 Z M 119 110 " clip-rule="nonzero"/></clipPath><clipPath id="6acb9d476a"><path d="M 303.699219 207.542969 L 176.441406 294.707031 L 89.277344 167.453125 L 216.535156 80.285156 Z M 303.699219 207.542969 " clip-rule="nonzero"/></clipPath><clipPath id="2e35171b9e"><path d="M 240.070312 251.125 C 204.929688 275.195312 156.929688 266.21875 132.859375 231.078125 C 108.789062 195.9375 117.765625 147.9375 152.90625 123.867188 C 188.046875 99.800781 236.046875 108.773438 260.117188 143.914062 C 284.1875 179.054688 275.210938 227.054688 240.070312 251.125 L 222.636719 225.675781 C 243.722656 211.234375 249.105469 182.433594 234.664062 161.347656 C 220.222656 140.261719 191.421875 134.878906 170.339844 149.320312 C 149.253906 163.761719 143.867188 192.5625 158.3125 213.648438 C 172.753906 234.730469 201.550781 240.117188 222.636719 225.675781 Z M 240.070312 251.125 " clip-rule="nonzero"/></clipPath><clipPath id="570075f50d"><path d="M 119 110 L 233 110 L 233 265 L 119 265 Z M 119 110 " clip-rule="nonzero"/></clipPath><clipPath id="ca5231b09e"><path d="M 293.230469 212.519531 L 174.921875 293.558594 L 88.441406 167.292969 L 206.75 86.257812 Z M 293.230469 212.519531 " clip-rule="nonzero"/></clipPath><clipPath id="4fb2725cb8"><path d="M 222.777344 260 C 190.832031 271.585938 155.066406 260.894531 134.71875 233.679688 C 114.371094 206.460938 114.234375 169.132812 134.382812 141.769531 C 154.53125 114.40625 190.21875 103.453125 222.25 114.804688 C 227.441406 116.644531 231.261719 121.117188 232.261719 126.535156 C 233.265625 131.953125 231.300781 137.496094 227.113281 141.074219 C 222.921875 144.652344 217.136719 145.722656 211.945312 143.882812 C 192.726562 137.070312 171.316406 143.640625 159.226562 160.058594 C 147.136719 176.480469 147.21875 198.875 159.425781 215.207031 C 171.636719 231.535156 193.09375 237.949219 212.261719 231 C 220.269531 228.09375 229.117188 232.234375 232.019531 240.242188 C 234.925781 248.25 230.789062 257.097656 222.777344 260 Z M 222.777344 260 " clip-rule="nonzero"/></clipPath><clipPath id="1bd8083044"><path d="M 186.503906 155.023438 L 206.480469 155.023438 L 206.480469 219.941406 L 186.503906 219.941406 Z M 186.503906 155.023438 " clip-rule="nonzero"/></clipPath><clipPath id="aefc05fdaf"><path d="M 198.964844 156.933594 L 205.234375 178.847656 C 206.847656 184.503906 206.847656 190.496094 205.234375 196.152344 L 198.964844 218.066406 C 198.652344 219.171875 197.640625 219.933594 196.492188 219.933594 C 195.34375 219.933594 194.335938 219.171875 194.019531 218.066406 L 187.753906 196.152344 C 186.136719 190.496094 186.136719 184.503906 187.753906 178.847656 L 194.019531 156.933594 C 194.335938 155.828125 195.34375 155.066406 196.492188 155.066406 C 197.640625 155.066406 198.652344 155.828125 198.964844 156.933594 Z M 198.964844 156.933594 " clip-rule="nonzero"/></clipPath></defs><g clip-path="url(#5b854fa161)"><g clip-path="url(#6acb9d476a)"><g clip-path="url(#2e35171b9e)"><path fill="#057dcd" d="M 303.699219 207.542969 L 176.441406 294.707031 L 89.277344 167.453125 L 216.535156 80.285156 Z M 303.699219 207.542969 " fill-opacity="1" fill-rule="nonzero"/></g></g></g><g clip-path="url(#570075f50d)"><g clip-path="url(#ca5231b09e)"><g clip-path="url(#4fb2725cb8)"><path fill="#3954a3" d="M 303.699219 207.542969 L 176.441406 294.707031 L 89.277344 167.453125 L 216.535156 80.285156 Z M 303.699219 207.542969 " fill-opacity="1" fill-rule="nonzero"/></g></g></g><g clip-path="url(#1bd8083044)"><g clip-path="url(#aefc05fdaf)"><path fill="#024873" d="M 185.277344 148.277344 L 207.707031 148.277344 L 207.707031 226.6875 L 185.277344 226.6875 Z M 185.277344 148.277344 " fill-opacity="1" fill-rule="nonzero"/></g></g></svg>